<?xml version="1.0" standalone="no"?>
<!DOCTYPE svg PUBLIC "-//W3C//DTD SVG 20010904//EN"
 "http://www.w3.org/TR/2001/REC-SVG-20010904/DTD/svg10.dtd">
<svg version="1.0" xmlns="http://www.w3.org/2000/svg"
 width="458.000000pt" height="458.000000pt" viewBox="0 0 458.000000 458.000000"
 preserveAspectRatio="xMidYMid meet">
<metadata>
Created by potrace 1.14, written by Peter Selinger 2001-2017
</metadata>
<g transform="translate(0.000000,458.000000) scale(0.100000,-0.100000)"
fill="#000000" stroke="none">
<path d="M0 2290 l0 -2290 2290 0 2290 0 0 2290 0 2290 -2290 0 -2290 0 0
-2290z m1590 2093 c0 -22 77 -248 105 -307 14 -29 25 -60 25 -68 0 -9 6 -18
14 -21 7 -3 17 -22 20 -41 4 -20 11 -34 17 -31 5 4 9 -5 9 -19 0 -14 5 -28 11
-32 6 -3 17 -22 25 -40 8 -19 18 -34 23 -34 6 0 8 -11 5 -24 -3 -18 1 -25 17
-29 35 -9 19 -39 -31 -57 -25 -9 -65 -26 -90 -38 l-45 -21 -7 62 c-7 57 -26
180 -62 385 -8 45 -17 86 -21 91 -3 6 -12 52 -21 103 -8 51 -18 105 -21 121
-4 22 -2 26 11 21 9 -3 16 -13 16 -21z m1530 -137 c0 -2 -17 -37 -38 -78 -21
-40 -47 -96 -57 -123 -11 -28 -25 -61 -32 -75 -7 -14 -13 -32 -13 -40 0 -9 -4
-20 -9 -25 -5 -6 -14 -26 -19 -45 -12 -41 -30 -93 -47 -135 -22 -53 -37 -99
-42 -127 -6 -31 -27 -36 -52 -14 -9 7 -44 21 -78 31 -47 14 -63 23 -63 37 0
10 5 18 10 18 6 0 15 11 20 25 5 14 14 25 20 25 5 0 10 7 10 15 0 9 7 18 15
21 8 4 15 11 15 16 0 6 10 23 23 38 12 15 29 37 37 50 8 12 21 28 28 36 6 7
12 15 12 18 0 3 9 16 20 29 36 41 45 52 65 90 11 20 23 37 27 37 6 0 79 113
103 160 8 17 45 29 45 16z m-643 -642 c-3 -3 -12 -4 -19 -1 -8 3 -5 6 6 6 11
1 17 -2 13 -5z m303 -104 c11 -8 7 -9 -15 -4 -37 8 -45 14 -19 14 10 0 26 -5
34 -10z m-345 -39 c17 -5 68 -22 115 -36 47 -14 101 -35 120 -45 19 -11 47
-24 63 -31 15 -6 27 -15 27 -20 0 -5 5 -9 11 -9 15 0 126 -89 164 -131 49 -55
145 -190 145 -205 0 -8 5 -14 10 -14 6 0 10 -6 10 -12 0 -7 7 -26 16 -43 48
-91 84 -249 84 -368 0 -118 -56 -318 -127 -456 -13 -24 -23 -48 -23 -52 0 -5
-15 -42 -34 -81 -19 -40 -41 -89 -49 -108 -18 -42 -37 -160 -37 -227 0 -42 26
-181 44 -238 8 -25 -19 -38 -189 -91 -66 -20 -134 -43 -152 -50 -17 -8 -36
-14 -43 -14 -6 0 -64 -18 -128 -41 -65 -23 -133 -44 -152 -48 -19 -4 -45 -13
-58 -20 -28 -15 -47 -3 -56 34 -10 41 -77 175 -87 175 -5 0 -9 6 -9 14 0 21
-114 131 -167 162 -26 16 -50 31 -53 34 -3 3 -39 23 -80 44 -41 22 -77 42 -80
46 -3 4 -15 10 -27 14 -13 4 -23 12 -23 17 0 5 -6 9 -14 9 -8 0 -21 6 -28 12
-7 7 -25 19 -40 27 -16 8 -28 18 -28 23 0 4 -4 8 -9 8 -18 0 -159 131 -211
197 -30 37 -75 116 -104 183 -40 92 -76 259 -76 360 0 69 24 214 45 277 26 78
113 251 133 265 11 7 22 20 25 28 7 15 4 -7 -9 -82 l-6 -38 126 0 c105 0 126
-2 126 -15 0 -8 -5 -15 -11 -15 -5 0 -17 -17 -25 -37 -23 -56 -135 -290 -154
-323 -5 -8 -11 -22 -14 -30 -3 -8 -11 -23 -18 -32 -16 -23 -2 -38 43 -45 19
-3 45 -11 59 -18 14 -7 42 -16 63 -20 20 -4 37 -11 37 -15 0 -4 20 -11 45 -14
24 -4 47 -11 50 -17 4 -5 17 -9 31 -9 13 0 32 -9 41 -20 10 -11 22 -20 28 -20
6 0 19 -6 29 -13 17 -13 16 -16 -18 -61 -20 -26 -36 -54 -36 -61 0 -8 -6 -18
-12 -22 -7 -4 -21 -24 -31 -43 -37 -69 -52 -94 -69 -112 -10 -10 -18 -24 -18
-31 0 -7 -9 -20 -20 -30 -11 -9 -20 -20 -20 -24 0 -9 48 -33 65 -33 6 0 30 -9
53 -20 22 -11 46 -20 52 -20 15 0 197 -60 245 -81 22 -9 55 -20 73 -24 17 -4
32 -10 32 -14 0 -4 6 -8 13 -9 27 -1 61 -12 71 -22 5 -5 17 -10 26 -10 8 0 28
-7 44 -15 15 -8 36 -15 45 -15 11 0 20 -14 28 -42 6 -24 18 -68 28 -99 l17
-55 -67 -67 c-37 -37 -71 -64 -77 -61 -7 5 -9 -2 -4 -22 9 -36 17 -44 24 -24
7 21 117 130 131 130 6 0 11 -6 11 -12 0 -7 6 -25 14 -40 8 -15 16 -41 18 -58
3 -30 0 -32 -50 -49 -28 -10 -52 -15 -52 -12 0 3 -5 -1 -10 -9 -8 -13 -13 -13
-31 -2 -26 17 -33 11 -15 -13 13 -19 16 -19 92 4 103 30 164 50 189 62 11 5
58 20 105 34 115 34 216 73 229 89 8 9 6 22 -5 46 -27 53 -24 254 5 348 13 39
27 75 32 78 5 3 9 12 9 20 0 7 20 57 45 110 25 52 45 98 45 101 0 3 7 19 15
36 106 230 123 535 41 732 -32 77 -62 135 -68 135 -5 0 -8 5 -8 10 0 10 -56
85 -111 147 -72 83 -263 194 -404 237 -97 29 -263 40 -379 26 -58 -7 -106 -17
-106 -23 0 -5 -6 -7 -14 -4 -18 7 -86 -13 -86 -26 0 -5 10 -6 23 -2 51 16 197
38 262 39 62 1 214 -20 285 -39 14 -4 37 -9 52 -12 15 -3 33 -11 39 -19 6 -8
18 -14 26 -14 32 0 213 -112 213 -132 0 -6 3 -9 6 -5 8 8 34 -18 34 -33 0 -6
4 -9 10 -5 10 6 96 -96 110 -132 5 -13 14 -23 20 -23 6 0 8 -4 5 -10 -3 -5 -2
-10 4 -10 5 0 12 -13 16 -30 4 -16 10 -30 13 -30 11 0 51 -125 74 -235 14 -67
3 -237 -23 -342 -25 -108 -98 -295 -120 -313 -4 -3 -10 -20 -14 -37 -3 -18
-11 -33 -16 -33 -5 0 -9 -5 -9 -11 0 -5 -8 -29 -19 -52 -10 -23 -22 -58 -26
-77 -4 -19 -12 -41 -18 -48 -17 -22 -12 -220 8 -290 10 -37 14 -67 9 -72 -12
-11 -100 -40 -122 -40 -13 0 -30 38 -75 169 -31 93 -57 176 -57 184 0 9 -12
29 -26 46 -22 26 -25 37 -20 78 4 27 13 122 21 213 42 472 44 489 73 522 26
31 -1 48 -75 48 -50 0 -82 -7 -141 -32 -55 -23 -94 -32 -137 -33 -80 -1 -192
-41 -233 -82 -21 -21 -44 -30 -91 -38 -24 -4 -68 -18 -97 -31 -50 -22 -57 -23
-92 -10 -72 26 -197 65 -232 72 -19 3 -42 11 -52 17 -16 11 -16 13 6 42 13 16
26 40 30 53 4 12 11 22 16 22 4 0 11 11 14 25 4 14 10 25 14 25 5 0 19 23 32
50 13 28 27 50 32 50 4 0 8 5 8 11 0 13 102 188 138 237 13 18 22 35 20 38 -4
4 -29 7 -158 20 -30 3 -77 8 -105 12 l-50 7 3 38 c2 22 -1 37 -7 37 -6 0 -11
10 -11 23 0 44 184 176 325 232 65 26 165 56 225 68 43 9 374 -1 405 -12z
m399 3 c6 -15 4 -15 -11 -3 -10 7 -20 15 -22 16 -2 2 3 3 11 3 9 0 19 -7 22
-16z m53 -34 c3 -10 2 -11 -4 -4 -4 6 -15 14 -23 17 -11 5 -9 6 4 4 11 -1 21
-9 23 -17z m-1270 -16 c-3 -3 -12 -4 -19 -1 -8 3 -5 6 6 6 11 1 17 -2 13 -5z
m1325 -24 c12 -10 26 -17 31 -13 6 3 7 1 4 -5 -8 -12 -54 6 -62 26 -6 17 3 15
27 -8z m-2482 -19 c0 -5 10 -13 23 -16 12 -4 47 -19 77 -33 30 -14 57 -26 60
-27 3 -1 21 -8 40 -16 19 -9 69 -26 110 -38 41 -13 90 -29 108 -37 18 -8 44
-14 58 -14 14 0 23 -3 20 -8 -2 -4 32 -16 75 -26 83 -20 102 -32 78 -50 -14
-11 -41 -61 -58 -108 -12 -33 -22 -35 -46 -8 -10 11 -24 20 -32 20 -7 0 -13 5
-13 10 0 6 -7 10 -15 10 -8 0 -15 4 -15 8 0 5 -30 28 -67 52 -38 25 -74 51
-81 58 -8 7 -26 19 -41 26 -14 8 -51 30 -81 50 -30 20 -60 36 -67 36 -7 0 -13
5 -13 10 0 6 -5 10 -11 10 -9 0 -148 66 -158 75 -1 2 0 8 4 14 8 13 45 15 45
2z m1030 -41 c-8 -5 -17 -7 -19 -4 -3 3 1 9 9 14 8 5 17 7 19 4 3 -3 -1 -9 -9
-14z m1540 0 c12 -8 11 -10 -7 -10 -13 0 -23 5 -23 10 0 13 11 13 30 0z m55
-71 c10 -30 0 -33 -15 -4 -7 14 -17 25 -22 25 -4 0 -8 5 -8 10 0 18 38 -8 45
-31z m-1615 -24 c0 -8 -2 -15 -4 -15 -2 0 -6 7 -10 15 -3 8 -1 15 4 15 6 0 10
-7 10 -15z m1655 -24 c3 -5 1 -12 -5 -16 -5 -3 -10 1 -10 9 0 18 6 21 15 7z
m-1795 -36 c0 -8 -4 -15 -9 -15 -8 0 -101 -134 -101 -146 0 -3 -16 -33 -35
-65 -19 -33 -35 -68 -35 -78 0 -9 -4 -21 -9 -26 -19 -20 -51 -148 -62 -251
-11 -102 -6 -193 17 -364 4 -33 4 -32 -14 12 -46 111 -62 287 -37 405 17 85
56 225 65 233 3 3 25 46 50 95 25 50 48 92 52 93 5 2 8 8 8 13 0 5 8 18 18 28
34 39 42 50 42 66 0 9 9 15 25 15 16 0 25 -6 25 -15z m1837 -31 c2 -13 1 -15
-4 -4 -3 8 -11 19 -17 23 -7 6 -6 7 4 4 8 -2 16 -12 17 -23z m946 9 c-13 -2
-33 -2 -45 0 -13 2 -3 4 22 4 25 0 35 -2 23 -4z m-63 -23 c0 -5 -9 -10 -20
-10 -11 0 -20 -3 -20 -8 0 -4 -24 -16 -52 -26 -29 -10 -80 -31 -113 -46 -33
-15 -82 -38 -110 -50 -98 -43 -220 -105 -223 -112 -2 -4 -14 -8 -27 -8 -12 0
-28 -7 -35 -15 -7 -8 -18 -15 -24 -15 -18 0 -43 35 -51 71 -4 19 -13 44 -21
56 -13 21 -12 23 8 27 13 2 52 10 88 16 36 7 85 16 110 20 175 27 259 44 285
55 17 7 55 21 85 30 30 9 60 18 65 20 22 7 55 4 55 -5z m-840 -45 c0 -8 -2
-15 -4 -15 -2 0 -6 7 -10 15 -3 8 -1 15 4 15 6 0 10 -7 10 -15z m-2075 -15 c3
-5 1 -10 -4 -10 -6 0 -11 5 -11 10 0 6 2 10 4 10 3 0 8 -4 11 -10z m2102 -41
c1 -19 1 -20 -4 -4 -3 11 -10 24 -17 28 -7 6 -6 7 4 4 8 -2 16 -14 17 -28z
m40 -111 c-3 -8 -6 -5 -6 6 -1 11 2 17 5 13 3 -3 4 -12 1 -19z m43 -105 c0 -7
-4 -13 -10 -13 -5 0 -10 12 -10 28 0 21 2 24 10 12 5 -8 10 -21 10 -27z m-81
-240 c1 -174 -48 -364 -139 -534 -4 -9 -27 -61 -50 -115 -22 -54 -45 -108 -50
-119 -5 -11 -14 -55 -20 -98 -15 -119 -32 -132 -27 -22 4 86 32 205 49 205 4
0 8 5 8 11 0 7 9 30 19 53 48 102 61 133 61 144 0 7 4 12 9 12 5 0 12 16 15
35 4 19 11 35 16 35 5 0 12 17 16 38 4 20 10 42 15 47 4 6 18 53 29 105 18 81
21 120 18 259 l-3 164 17 -54 c11 -37 17 -90 17 -166z m88 160 c-3 -10 -5 -2
-5 17 0 19 2 27 5 18 2 -10 2 -26 0 -35z m-753 -230 c-3 -43 -9 -98 -14 -123
-5 -25 -12 -94 -15 -155 -3 -60 -10 -140 -16 -176 -6 -36 -13 -112 -17 -169
-4 -57 -12 -105 -18 -107 -5 -2 -18 25 -28 59 -10 35 -40 130 -67 211 -54 164
-56 172 -34 181 17 6 21 76 4 76 -7 0 -9 22 -5 68 12 125 18 146 51 161 17 8
32 17 35 21 4 6 82 25 117 29 8 1 10 -21 7 -76z m-245 -50 c-4 -27 -8 -67 -8
-91 -1 -24 -5 -41 -10 -37 -5 3 -12 1 -15 -4 -3 -5 -23 -12 -43 -16 -21 -4
-44 -12 -51 -17 -9 -8 -21 -1 -45 27 -17 21 -45 52 -61 69 -34 35 -29 50 33
85 47 26 180 53 197 40 7 -6 8 -25 3 -56z m1008 35 c-3 -7 -5 -2 -5 12 0 14 2
19 5 13 2 -7 2 -19 0 -25z m-1870 -24 c-3 -3 -12 -4 -19 -1 -8 3 -5 6 6 6 11
1 17 -2 13 -5z m1860 -91 c-3 -10 -5 -2 -5 17 0 19 2 27 5 18 2 -10 2 -26 0
-35z m-1287 17 c0 -6 12 -23 28 -38 52 -51 90 -108 94 -137 2 -24 9 -31 33
-35 18 -3 34 -14 41 -30 14 -28 84 -250 84 -263 0 -5 6 -23 14 -40 29 -66 38
-96 32 -106 -8 -13 -34 -3 -38 14 -2 7 -28 42 -60 77 -31 34 -91 104 -134 153
-42 50 -81 92 -86 93 -4 2 -8 10 -8 17 0 7 -4 15 -10 17 -17 6 -120 133 -120
148 0 8 14 29 31 45 l31 30 -34 5 c-46 7 -43 31 7 46 50 16 95 17 95 4z m298
-127 c-2 -10 -14 -19 -27 -21 -16 -3 -21 -9 -18 -20 6 -19 24 -70 43 -122 7
-19 29 -89 49 -155 55 -179 72 -220 87 -218 7 1 25 5 39 9 26 6 28 3 49 -68
13 -40 26 -77 30 -83 4 -5 11 -26 14 -45 4 -19 11 -44 16 -55 12 -28 45 -128
45 -138 0 -12 -168 -67 -181 -59 -7 4 -12 9 -12 12 0 3 -9 37 -21 76 -11 39
-21 73 -21 76 0 3 25 31 56 63 l56 57 -39 18 c-91 43 -108 49 -114 39 -9 -15
-31 17 -27 38 2 10 16 24 31 31 15 7 27 18 27 25 0 14 -39 133 -51 159 -5 10
-13 34 -18 55 -9 36 -18 64 -47 143 -7 19 -18 56 -24 83 -12 45 -14 47 -47 47
-50 0 -40 30 17 52 61 23 92 23 88 1z m959 -5 c-3 -8 -6 -5 -6 6 -1 11 2 17 5
13 3 -3 4 -12 1 -19z m-20 -40 c-3 -7 -5 -2 -5 12 0 14 2 19 5 13 2 -7 2 -19
0 -25z m-2347 12 c0 -5 6 -10 13 -10 8 0 22 -33 35 -84 27 -102 27 -96 0 -96
-13 0 -54 -4 -93 -10 -38 -6 -81 -12 -95 -14 -14 -1 -41 -8 -60 -14 -19 -6
-64 -16 -100 -22 -90 -15 -139 -26 -180 -40 -90 -32 -118 -40 -143 -40 -15 0
-27 4 -27 8 0 8 92 52 109 52 27 0 446 194 457 212 3 4 12 8 21 8 23 0 53 29
46 46 -3 8 0 14 6 14 6 0 11 -4 11 -10z m1015 -96 c11 -12 35 -39 53 -59 17
-19 32 -38 32 -40 0 -2 12 -17 28 -33 15 -15 41 -46 59 -68 17 -21 50 -58 72
-82 70 -75 131 -149 131 -160 0 -16 -26 -21 -46 -8 -29 18 -129 57 -153 59
-12 1 -21 4 -21 8 0 4 -10 11 -22 14 -13 4 -46 18 -75 31 -28 13 -58 24 -65
24 -8 0 -18 4 -24 10 -5 5 -48 23 -94 40 -47 17 -99 38 -116 47 -28 15 -31 19
-21 40 5 13 14 23 18 23 4 0 21 21 38 48 17 26 36 56 43 67 7 10 25 33 40 50
16 16 28 38 28 47 0 28 23 26 50 -6 14 -16 34 -40 45 -52z m-823 37 c2 -17 1
-28 -4 -25 -8 5 -12 54 -4 54 2 0 6 -13 8 -29z m2115 -73 c-3 -8 -6 -5 -6 6
-1 11 2 17 5 13 3 -3 4 -12 1 -19z m108 -38 c3 -5 13 -10 22 -10 9 0 29 -13
44 -30 16 -16 31 -30 34 -30 3 0 13 0 22 0 9 0 13 -3 10 -7 -6 -6 12 -20 53
-40 8 -4 23 -14 32 -22 9 -9 38 -27 65 -41 26 -14 53 -29 59 -35 6 -5 55 -32
110 -60 55 -27 107 -60 117 -72 l16 -21 -47 18 c-94 36 -164 68 -175 79 -6 6
-25 11 -42 11 -17 0 -35 4 -40 9 -6 5 -37 16 -70 26 -33 9 -68 21 -77 26 -10
5 -26 9 -36 9 -10 0 -22 3 -26 8 -4 4 -39 14 -78 22 -83 18 -108 42 -70 67 12
9 22 24 22 34 0 11 7 19 16 19 12 0 15 6 10 25 -5 18 -2 25 8 25 8 0 18 -4 21
-10z m145 -20 c0 -5 -2 -10 -4 -10 -3 0 -8 5 -11 10 -3 6 -1 10 4 10 6 0 11
-4 11 -10z m-302 -45 c-6 -14 -13 -23 -16 -21 -7 7 9 46 18 46 5 0 4 -11 -2
-25z m342 15 c0 -5 -2 -10 -4 -10 -3 0 -8 5 -11 10 -3 6 -1 10 4 10 6 0 11 -4
11 -10z m-3275 -119 c3 -5 1 -12 -5 -16 -5 -3 -10 1 -10 9 0 18 6 21 15 7z
m995 -46 c0 -8 -2 -15 -4 -15 -2 0 -6 7 -10 15 -3 8 -1 15 4 15 6 0 10 -7 10
-15z m30 -29 c0 -3 -4 -8 -10 -11 -5 -3 -10 -1 -10 4 0 6 5 11 10 11 6 0 10
-2 10 -4z m30 -52 c0 -3 -7 -1 -15 6 -8 7 -15 17 -15 22 0 5 7 3 15 -6 8 -8
15 -18 15 -22z m65 -54 c3 -5 2 -10 -4 -10 -5 0 -13 5 -16 10 -3 6 -2 10 4 10
5 0 13 -4 16 -10z m95 -77 c0 -10 -4 -14 -8 -8 -4 6 -11 13 -16 18 -5 4 -2 7
7 7 10 0 17 -8 17 -17z m1593 -32 c4 -29 2 -40 -4 -30 -8 13 -14 88 -5 78 2
-2 6 -24 9 -48z m-1553 9 c12 -8 11 -10 -7 -10 -13 0 -23 5 -23 10 0 13 11 13
30 0z m920 -21 c0 -5 11 -9 25 -9 14 0 25 -4 25 -10 0 -9 -55 -70 -64 -70 -7
0 -36 92 -31 100 6 10 45 0 45 -11z m-851 -21 c23 -12 41 -26 41 -31 0 -7 -79
32 -99 49 -14 12 24 1 58 -18z m111 -74 c0 -11 -8 -9 -30 8 -16 12 -30 23 -30
24 0 2 14 -2 30 -7 17 -6 30 -17 30 -25z m1387 14 c-3 -8 -6 -5 -6 6 -1 11 2
17 5 13 3 -3 4 -12 1 -19z m-1513 -53 c27 -19 59 -35 72 -35 34 0 37 -27 7
-66 -19 -26 -28 -32 -34 -22 -6 9 -9 5 -9 -13 0 -14 -9 -37 -20 -50 -11 -13
-24 -29 -29 -35 -14 -17 -134 -184 -146 -202 -5 -9 -15 -21 -21 -27 -16 -15
-66 -93 -94 -147 -14 -26 -30 -50 -37 -53 -20 -7 -16 33 7 70 11 17 21 41 23
52 2 12 7 27 13 35 5 7 16 31 23 53 7 22 21 58 30 80 19 41 54 135 87 235 11
30 22 57 27 58 4 2 7 17 7 33 0 16 5 29 10 29 6 0 10 9 10 20 0 29 18 25 74
-15z m176 14 c0 -14 -17 -10 -23 5 -4 10 -1 13 9 9 7 -3 14 -9 14 -14z m1367
-61 c-3 -8 -6 -5 -6 6 -1 11 2 17 5 13 3 -3 4 -12 1 -19z m-1257 2 c0 -5 -4
-10 -9 -10 -6 0 -13 5 -16 10 -3 6 1 10 9 10 9 0 16 -4 16 -10z m1170 -55 c0
-15 -6 -25 -14 -25 -19 0 -27 25 -13 39 18 18 27 13 27 -14z m-1110 11 c0 -3
-4 -8 -10 -11 -5 -3 -10 -1 -10 4 0 6 5 11 10 11 6 0 10 -2 10 -4z m30 -27 c0
-5 -4 -9 -8 -9 -5 0 -9 7 -9 15 0 8 4 12 9 9 4 -3 8 -9 8 -15z m70 -92 c0 -5
-4 -5 -10 -2 -5 3 -10 14 -10 23 0 15 2 15 10 2 5 -8 10 -19 10 -23z m-392
-17 c-7 -10 -14 -18 -15 -16 -6 6 9 36 18 36 5 0 4 -9 -3 -20z m1395 -37 c-7
-2 -19 -2 -25 0 -7 3 -2 5 12 5 14 0 19 -2 13 -5z m-928 -82 c3 -5 1 -12 -5
-16 -5 -3 -10 1 -10 9 0 18 6 21 15 7z m868 -8 c-7 -2 -21 -2 -30 0 -10 3 -4
5 12 5 17 0 24 -2 18 -5z m-856 -60 c-3 -10 -5 -2 -5 17 0 19 2 27 5 18 2 -10
2 -26 0 -35z m586 30 c-7 -2 -21 -2 -30 0 -10 3 -4 5 12 5 17 0 24 -2 18 -5z
m-556 -105 c-3 -7 -5 -2 -5 12 0 14 2 19 5 13 2 -7 2 -19 0 -25z m860 -24 c-3
-3 -12 -4 -19 -1 -8 3 -5 6 6 6 11 1 17 -2 13 -5z m-1776 -207 c-10 -9 -11 -8
-5 6 3 10 9 15 12 12 3 -3 0 -11 -7 -18z m1839 -127 c0 -5 -2 -10 -4 -10 -3 0
-8 5 -11 10 -3 6 -1 10 4 10 6 0 11 -4 11 -10z m-747 -47 c-7 -2 -19 -2 -25 0
-7 3 -2 5 12 5 14 0 19 -2 13 -5z"/>
<path d="M1870 3372 c0 -6 -16 -14 -35 -18 -19 -3 -38 -10 -41 -15 -3 -5 10
-6 28 -3 36 7 66 29 55 40 -4 4 -7 2 -7 -4z"/>
<path d="M2450 3330 c0 -5 5 -10 10 -10 6 0 10 5 10 10 0 6 -4 10 -10 10 -5 0
-10 -4 -10 -10z"/>
<path d="M1747 3315 c-8 -8 -17 -11 -21 -8 -3 4 -6 1 -6 -5 0 -7 7 -12 15 -12
8 0 15 5 15 10 0 6 7 10 15 10 8 0 15 5 15 10 0 14 -16 12 -33 -5z"/>
<path d="M1675 3280 c-3 -5 -3 -10 2 -11 4 0 -1 -5 -12 -10 -19 -8 -19 -9 -1
-6 11 1 18 6 17 12 -1 5 6 12 16 16 16 7 16 8 1 8 -9 1 -20 -3 -23 -9z"/>
<path d="M1616 3233 c-6 -14 -5 -15 5 -6 7 7 10 15 7 18 -3 3 -9 -2 -12 -12z"/>
<path d="M2640 3246 c0 -2 7 -6 15 -10 8 -3 15 -1 15 4 0 6 -7 10 -15 10 -8 0
-15 -2 -15 -4z"/>
<path d="M2741 3194 c0 -11 3 -14 6 -6 3 7 2 16 -1 19 -3 4 -6 -2 -5 -13z"/>
<path d="M2911 3014 c0 -11 3 -14 6 -6 3 7 2 16 -1 19 -3 4 -6 -2 -5 -13z"/>
<path d="M1241 2344 c0 -11 3 -14 6 -6 3 7 2 16 -1 19 -3 4 -6 -2 -5 -13z"/>
<path d="M1271 2234 c0 -11 3 -14 6 -6 3 7 2 16 -1 19 -3 4 -6 -2 -5 -13z"/>
<path d="M1280 2197 c0 -7 7 -22 32 -69 6 -13 17 -34 24 -48 7 -14 22 -35 32
-46 11 -11 22 -30 26 -41 8 -24 140 -163 155 -163 6 0 11 -7 11 -15 0 -8 5
-15 11 -15 8 0 52 -30 114 -77 6 -5 21 -14 35 -21 14 -7 39 -21 55 -31 32 -21
62 -38 160 -91 100 -53 186 -128 239 -207 16 -24 33 -43 37 -43 11 0 12 27 1
32 -5 2 -22 24 -40 50 -44 63 -83 101 -168 159 -53 36 -70 46 -179 104 -38 20
-77 43 -86 51 -8 8 -23 14 -31 14 -9 0 -18 7 -22 15 -3 8 -10 15 -17 15 -32 0
-251 200 -264 241 -4 11 -11 19 -16 19 -5 0 -14 10 -20 23 -22 48 -41 77 -50
77 -5 0 -9 8 -9 18 -1 16 -30 64 -30 49z"/>
</g>
</svg>
